<svg xmlns="http://www.w3.org/2000/svg" viewBox="0 0 400 300">
  <rect x="0" y="0" width="400" height="300" fill="#ffffff"/>
  <g fill="none" stroke="#111827" stroke-width="3" stroke-linecap="round" stroke-linejoin="round">
    <!-- 실외기(응축유닛) -->
    <rect x="18" y="122" width="92" height="56"/>
    <circle cx="74" cy="150" r="14"/>
    <line x1="74" y1="150" x2="84" y2="142"/>
    <line x1="28" y1="128" x2="28" y2="172" stroke-width="2"/>
    <line x1="35" y1="128" x2="35" y2="172" stroke-width="2"/>
    <line x1="42" y1="128" x2="42" y2="172" stroke-width="2"/>
    <text x="64" y="192" font-size="11" fill="#374151" stroke="none" text-anchor="middle">실외기</text>

    <!-- 냉매관 -->
    <line x1="110" y1="150" x2="200" y2="150"/>
    <line x1="200" y1="80" x2="200" y2="220"/>
    <line x1="200" y1="80" x2="210" y2="80"/>
    <line x1="200" y1="220" x2="210" y2="220"/>
    <polygon points="150,144 150,156 162,150" fill="#111827" stroke="none"/>
    <polygon points="194,110 206,110 200,98" fill="#111827" stroke="none"/>
    <polygon points="194,190 206,190 200,202" fill="#111827" stroke="none"/>

    <!-- FCU 1 (상부 실) -->
    <rect x="210" y="60" width="92" height="40"/>
    <polyline points="216,66 216,94 224,66 224,94 232,66 232,94 240,66 240,94"/>
    <circle cx="284" cy="80" r="10"/>
    <line x1="284" y1="80" x2="291" y2="74"/>

    <!-- FCU 2 (하부 실) -->
    <rect x="210" y="200" width="92" height="40"/>
    <polyline points="216,206 216,234 224,206 224,234 232,206 232,234 240,206 240,234"/>
    <circle cx="284" cy="220" r="10"/>
    <line x1="284" y1="220" x2="291" y2="214"/>

    <!-- 온도 조절기 -->
    <rect x="320" y="58" width="28" height="40" rx="4"/>
    <circle cx="334" cy="76" r="8"/>
    <line x1="334" y1="76" x2="340" y2="70"/>
    <line x1="302" y1="80" x2="320" y2="80" stroke-dasharray="4 4" stroke-width="2"/>
  </g>
</svg>
