<svg xmlns="http://www.w3.org/2000/svg" viewBox="0 0 400 300">
  <rect x="0" y="0" width="400" height="300" fill="#ffffff"/>
  <g fill="none" stroke="#111827" stroke-width="3" stroke-linecap="round" stroke-linejoin="round">
    <!-- 소화 배관 (천장) -->
    <line x1="20" y1="70" x2="380" y2="70"/>

    <!-- ① 알람 밸브 @x=70 -->
    <polygon points="54,58 54,82 70,70"/>
    <polygon points="86,58 86,82 70,70"/>
    <path d="M60,58 a10,10 0 0 1 20,0 Z"/>

    <!-- ② 스프링클러 헤드 @x=180 -->
    <line x1="180" y1="70" x2="180" y2="96"/>
    <circle cx="180" cy="102" r="9" fill="#111827"/>
    <line x1="170" y1="116" x2="190" y2="116"/>

    <!-- ③ 스프링클러 헤드 @x=300 -->
    <line x1="300" y1="70" x2="300" y2="96"/>
    <circle cx="300" cy="102" r="9" fill="#111827"/>
    <line x1="290" y1="116" x2="310" y2="116"/>

    <!-- ④ 급기 디퓨저 (하부) @x=200 -->
    <rect x="176" y="210" width="48" height="48"/>
    <line x1="176" y1="210" x2="224" y2="258"/>
    <line x1="224" y1="210" x2="176" y2="258"/>
    <line x1="200" y1="210" x2="200" y2="258"/>
    <line x1="176" y1="234" x2="224" y2="234"/>
  </g>
</svg>
