<svg xmlns="http://www.w3.org/2000/svg" viewBox="0 0 400 300">
  <rect x="0" y="0" width="400" height="300" fill="#ffffff"/>
  <g fill="none" stroke="#111827" stroke-width="3" stroke-linecap="round" stroke-linejoin="round">
    <!-- 공조기(AHU) -->
    <rect x="16" y="120" width="94" height="60"/>
    <line x1="46" y1="120" x2="46" y2="180"/>
    <line x1="78" y1="120" x2="78" y2="180"/>
    <polyline points="22,132 40,132 22,144 40,144 22,156 40,156"/>
    <line x1="54" y1="126" x2="70" y2="174" stroke-width="2"/>
    <line x1="62" y1="126" x2="78" y2="174" stroke-width="2"/>
    <circle cx="94" cy="150" r="9"/>
    <text x="63" y="196" font-size="12" fill="#374151" stroke="none" text-anchor="middle">AHU</text>

    <!-- 급기 덕트 -->
    <line x1="110" y1="150" x2="360" y2="150"/>
    <polygon points="180,144 180,156 192,150" fill="#111827" stroke="none"/>
    <polygon points="280,144 280,156 292,150" fill="#111827" stroke="none"/>

    <!-- 댐퍼 @ (150,150) -->
    <rect x="136" y="136" width="28" height="28"/>
    <line x1="140" y1="162" x2="160" y2="138"/>

    <!-- VAV 박스 @ (235,150) -->
    <rect x="210" y="137" width="50" height="26"/>
    <line x1="222" y1="161" x2="236" y2="139"/>
    <rect x="262" y="143" width="12" height="12"/>

    <!-- 급기 디퓨저 @ (310,205) -->
    <line x1="310" y1="150" x2="310" y2="184"/>
    <rect x="292" y="184" width="36" height="36"/>
    <line x1="292" y1="184" x2="328" y2="220"/>
    <line x1="328" y1="184" x2="292" y2="220"/>

    <!-- 리턴 그릴 @ (160,245) -->
    <rect x="140" y="228" width="40" height="34"/>
    <line x1="140" y1="239" x2="180" y2="239"/>
    <line x1="140" y1="250" x2="180" y2="250"/>
    <line x1="160" y1="262" x2="20" y2="262"/>
    <line x1="20" y1="262" x2="20" y2="180"/>
  </g>
</svg>
