<svg xmlns="http://www.w3.org/2000/svg" viewBox="0 0 400 300">
  <rect x="0" y="0" width="400" height="300" fill="#ffffff"/>
  <g fill="none" stroke="#111827" stroke-width="3" stroke-linecap="round" stroke-linejoin="round">
    <!-- 공조기(AHU) -->
    <rect x="16" y="120" width="94" height="56"/>
    <line x1="46" y1="120" x2="46" y2="176"/>
    <line x1="78" y1="120" x2="78" y2="176"/>
    <polyline points="22,130 40,130 22,142 40,142 22,154 40,154"/>
    <line x1="54" y1="126" x2="70" y2="170" stroke-width="2"/>
    <circle cx="94" cy="148" r="9"/>
    <text x="63" y="192" font-size="11" fill="#374151" stroke="none" text-anchor="middle">AHU</text>

    <!-- 냉수 코일 + 전동 2방 밸브 -->
    <line x1="60" y1="176" x2="60" y2="220"/>
    <polygon points="48,212 48,228 60,220"/>
    <polygon points="72,212 72,228 60,220"/>
    <circle cx="60" cy="220" r="6" fill="#111827"/>
    <line x1="60" y1="220" x2="60" y2="206"/>
    <circle cx="60" cy="198" r="8"/>
    <text x="60" y="202" font-size="9" text-anchor="middle" fill="#111827" stroke="none">M</text>
    <line x1="60" y1="228" x2="60" y2="250"/>
    <line x1="30" y1="250" x2="90" y2="250"/>
    <text x="24" y="244" font-size="10" fill="#374151" stroke="none">냉수</text>

    <!-- 급기 덕트 -->
    <line x1="110" y1="150" x2="360" y2="150"/>
    <polygon points="170,144 170,156 182,150" fill="#111827" stroke="none"/>
    <polygon points="280,144 280,156 292,150" fill="#111827" stroke="none"/>

    <!-- VAV 박스 -->
    <rect x="205" y="137" width="50" height="26"/>
    <line x1="217" y1="161" x2="231" y2="139"/>
    <rect x="257" y="143" width="12" height="12"/>

    <!-- 급기 디퓨저 -->
    <line x1="310" y1="150" x2="310" y2="184"/>
    <rect x="292" y="184" width="36" height="36"/>
    <line x1="292" y1="184" x2="328" y2="220"/>
    <line x1="328" y1="184" x2="292" y2="220"/>

    <!-- 온도 조절기 + 제어 신호 -->
    <rect x="322" y="70" width="28" height="38" rx="4"/>
    <circle cx="336" cy="87" r="8"/>
    <line x1="336" y1="87" x2="342" y2="81"/>
    <polyline points="322,90 300,90 300,137" stroke-dasharray="4 4" stroke-width="2"/>
  </g>
</svg>
