<svg xmlns="http://www.w3.org/2000/svg" viewBox="0 0 400 300">
  <rect x="0" y="0" width="400" height="300" fill="#ffffff"/>
  <g fill="none" stroke="#111827" stroke-width="3" stroke-linecap="round" stroke-linejoin="round">
    <!-- 입상관 + 가지배관 -->
    <line x1="70" y1="245" x2="70" y2="80"/>
    <line x1="70" y1="80" x2="360" y2="80"/>
    <polygon points="64,150 76,150 70,138" fill="#111827" stroke="none"/>
    <polygon points="150,74 150,86 162,80" fill="#111827" stroke="none"/>

    <!-- 알람 밸브 @ (70,235) -->
    <line x1="30" y1="235" x2="55" y2="235"/>
    <polygon points="55,225 55,245 70,235"/>
    <polygon points="85,225 85,245 70,235"/>
    <path d="M62,225 a8,8 0 0 1 16,0 Z"/>

    <!-- 게이트 밸브(개폐표시형) @ (70,155) -->
    <polygon points="58,145 82,145 70,157"/>
    <polygon points="58,169 82,169 70,157"/>
    <line x1="70" y1="157" x2="88" y2="157"/>

    <!-- 스프링클러 헤드 3개 -->
    <line x1="150" y1="80" x2="150" y2="104"/>
    <circle cx="150" cy="110" r="8" fill="#111827"/>
    <line x1="140" y1="124" x2="160" y2="124"/>
    <line x1="240" y1="80" x2="240" y2="104"/>
    <circle cx="240" cy="110" r="8" fill="#111827"/>
    <line x1="230" y1="124" x2="250" y2="124"/>
    <line x1="330" y1="80" x2="330" y2="104"/>
    <circle cx="330" cy="110" r="8" fill="#111827"/>
    <line x1="320" y1="124" x2="340" y2="124"/>
  </g>
</svg>
