<svg xmlns="http://www.w3.org/2000/svg" viewBox="0 0 400 300">
  <rect x="0" y="0" width="400" height="300" fill="#ffffff"/>
  <g fill="none" stroke="#111827" stroke-width="3" stroke-linecap="round" stroke-linejoin="round">
    <!-- 급수 + 입상관 -->
    <line x1="18" y1="235" x2="130" y2="235"/>
    <line x1="130" y1="235" x2="130" y2="80"/>
    <line x1="130" y1="80" x2="360" y2="80"/>
    <polygon points="124,165 136,165 130,153" fill="#111827" stroke="none"/>

    <!-- OS&Y 밸브 -->
    <polygon points="40,227 40,243 52,235"/>
    <polygon points="64,227 64,243 52,235"/>
    <line x1="52" y1="235" x2="52" y2="214"/>
    <line x1="44" y1="214" x2="60" y2="214"/>
    <line x1="47" y1="227" x2="57" y2="227"/>

    <!-- 프리액션 밸브 -->
    <polygon points="88,227 88,243 100,235"/>
    <polygon points="112,227 112,243 100,235"/>
    <rect x="88" y="208" width="24" height="16"/>
    <text x="100" y="221" font-size="10" text-anchor="middle" fill="#111827" stroke="none">PA</text>

    <!-- 화재 감지기 + 연동 신호 -->
    <circle cx="230" cy="42" r="14"/>
    <circle cx="230" cy="42" r="5" fill="#111827"/>
    <line x1="230" y1="20" x2="230" y2="26"/>
    <line x1="208" y1="42" x2="214" y2="42"/>
    <line x1="246" y1="42" x2="252" y2="42"/>
    <polyline points="230,56 230,190 100,190 100,208" stroke-dasharray="4 4" stroke-width="2"/>

    <!-- 스프링클러 헤드(폐쇄형) -->
    <line x1="200" y1="80" x2="200" y2="96"/>
    <circle cx="200" cy="102" r="8" fill="#111827"/>
    <line x1="190" y1="116" x2="210" y2="116"/>
    <line x1="310" y1="80" x2="310" y2="96"/>
    <circle cx="310" cy="102" r="8" fill="#111827"/>
    <line x1="300" y1="116" x2="320" y2="116"/>
  </g>
</svg>
