<svg xmlns="http://www.w3.org/2000/svg" viewBox="0 0 400 300">
  <rect x="0" y="0" width="400" height="300" fill="#ffffff"/>
  <g fill="none" stroke="#111827" stroke-width="3" stroke-linecap="round" stroke-linejoin="round">
    <!-- 공정 유체 라인 -->
    <line x1="30" y1="180" x2="370" y2="180"/>
    <polygon points="104,174 104,186 116,180" fill="#111827" stroke="none"/>
    <polygon points="300,174 300,186 312,180" fill="#111827" stroke="none"/>
    <text x="30" y="170" font-size="11" fill="#374151" stroke="none">공정유체</text>

    <!-- 열교환기 -->
    <rect x="165" y="152" width="70" height="46"/>
    <path d="M165,180 Q182,158 200,180 T235,180"/>

    <!-- 증기 공급 + 컨트롤 밸브 -->
    <line x1="200" y1="58" x2="200" y2="152"/>
    <polygon points="194,128 206,128 200,140" fill="#111827" stroke="none"/>
    <text x="208" y="66" font-size="11" fill="#374151" stroke="none">증기</text>
    <polygon points="188,90 188,110 200,100"/>
    <polygon points="212,90 212,110 200,100"/>
    <line x1="200" y1="100" x2="200" y2="76"/>
    <path d="M186,76 Q200,60 214,76 Z"/>

    <!-- 응축수 드레인 → 스팀 트랩 → 사이트글래스 -->
    <line x1="228" y1="198" x2="228" y2="235"/>
    <line x1="228" y1="235" x2="238" y2="235"/>
    <rect x="238" y="223" width="24" height="24"/>
    <circle cx="250" cy="235" r="7" fill="#111827"/>
    <line x1="262" y1="235" x2="300" y2="235"/>
    <circle cx="315" cy="235" r="14"/>
    <line x1="309" y1="223" x2="309" y2="247"/>
    <line x1="321" y1="223" x2="321" y2="247"/>
  </g>
</svg>
